<svg width="16.000000" height="16.000000" viewBox="0 0 16 16" fill="none" xmlns="http://www.w3.org/2000/svg" xmlns:xlink="http://www.w3.org/1999/xlink">
	<desc>
			Created with Pixso.
	</desc>
	<g clip-path="url(#clip234_968)">
		<path d="M4 14.5L6 14.5C6.5498 14.5 7 14.05 7 13.5L7 1.5C7 0.950012 6.5498 0.5 6 0.5L4 0.5C3.4502 0.5 3 0.950012 3 1.5L3 13.5C3 14.05 3.4502 14.5 4 14.5ZM10 14.5L12 14.5C12.5498 14.5 13 14.05 13 13.5L13 5.5C13 4.95001 12.5498 4.5 12 4.5L10 4.5C9.4502 4.5 9 4.95001 9 5.5L9 13.5C9 14.05 9.4502 14.5 10 14.5ZM15 15L1 15C0.75 15 0.5 15.25 0.5 15.5C0.5 15.75 0.75 16 1 16L15 16C15.25 16 15.5 15.75 15.5 15.5C15.5 15.25 15.25 15 15 15Z" fill-rule="evenodd" fill="#000000"/>
	</g>
	<defs>
		<clipPath id="clip234_968">
			<rect width="16.000000" height="16.000000" fill="white"/>
		</clipPath>
	</defs>
</svg>
