<svg width="16.000000" height="16.000000" viewBox="0 0 16 16" fill="none" xmlns="http://www.w3.org/2000/svg" xmlns:xlink="http://www.w3.org/1999/xlink">
	<desc>
			Created with Pixso.
	</desc>
	<g clip-path="url(#clip234_972)">
		<path d="M0 0.0537109L16 0.0537109L16 1.19656L0 1.19656L0 0.0537109L0 0.0537109ZM0 14.8571L16 14.8571L16 16L0 16L0 14.8571ZM2.85693 5.71429L13.1431 5.71429C13.5239 5.71429 13.7144 5.90475 13.7144 6.28571L13.7144 9.71429C13.7144 10.0952 13.5239 10.2857 13.1431 10.2857L2.85693 10.2857C2.47607 10.2857 2.28564 10.0952 2.28564 9.71429L2.28564 6.28571C2.28564 5.90475 2.47607 5.71429 2.85693 5.71429L2.85693 5.71429Z" fill-rule="evenodd" fill="#000000"/>
	</g>
	<defs>
		<clipPath id="clip234_972">
			<rect width="16.000000" height="16.000000" fill="white"/>
		</clipPath>
	</defs>
</svg>
