<svg width="16.000000" height="16.000000" viewBox="0 0 16 16" fill="none" xmlns="http://www.w3.org/2000/svg" xmlns:xlink="http://www.w3.org/1999/xlink">
	<desc>
			Created with Pixso.
	</desc>
	<g clip-path="url(#clip234_965)">
		<path d="M15.7402 5.79788L0.262207 5.79788C0.117676 5.79788 0 5.68033 0 5.53589C0 5.39142 0.117676 5.2739 0.262207 5.2739L15.7402 5.2739C15.8843 5.2739 16.002 5.39142 16.002 5.53589C16.002 5.68033 15.8857 5.79788 15.7402 5.79788L15.7402 5.79788Z" fill-rule="evenodd" fill="#000000"/>
		<path d="M5.92871 0.0267944L4.04004 0.0267944C3.46338 0.0267944 2.99072 0.499359 2.99072 1.07596L2.99072 9.99579C2.99072 10.5724 3.46338 11.045 4.04004 11.045L5.92871 11.045C6.50537 11.045 6.97803 10.5724 6.97803 9.99579L6.97803 1.07596C6.97803 0.499359 6.50537 0.0267944 5.92871 0.0267944ZM11.9619 1.54852L10.0742 1.54852C9.49756 1.54852 9.0249 2.02109 9.0249 2.59769L9.0249 8.5267C9.0249 9.1033 9.49756 9.57587 10.0742 9.57587L11.9634 9.57587C12.5396 9.57587 13.0122 9.1033 13.0122 8.5267L13.0122 2.59769C13.0122 2.02109 12.5396 1.54852 11.9619 1.54852Z" fill-rule="evenodd" fill="#000000"/>
	</g>
	<defs>
		<clipPath id="clip234_965">
			<rect width="16.000000" height="16.000000" fill="white"/>
		</clipPath>
	</defs>
</svg>
