<svg width="16.000000" height="16.000000" viewBox="0 0 16 16" fill="none" xmlns="http://www.w3.org/2000/svg" xmlns:xlink="http://www.w3.org/1999/xlink">
	<desc>
			Created with Pixso.
	</desc>
	<g clip-path="url(#clip234_959)">
		<path d="M13.5 9L5.5 9C4.9502 9 4.5 9.45001 4.5 10L4.5 12C4.5 12.55 4.9502 13 5.5 13L13.5 13C14.0498 13 14.5 12.55 14.5 12L14.5 10C14.5 9.45001 14.0498 9 13.5 9ZM13.5 3L1.5 3C0.950195 3 0.5 3.45001 0.5 4L0.5 6C0.5 6.54999 0.950195 7 1.5 7L13.5 7C14.0498 7 14.5 6.54999 14.5 6L14.5 4C14.5 3.45001 14.0498 3 13.5 3ZM15.5 0C15.25 0 15 0.25 15 0.5L15 15.5C15 15.75 15.25 16 15.5 16C15.75 16 16 15.75 16 15.5L16 0.5C16 0.25 15.75 0 15.5 0Z" fill-rule="evenodd" fill="#000000"/>
	</g>
	<defs>
		<clipPath id="clip234_959">
			<rect width="16.000000" height="16.000000" fill="white"/>
		</clipPath>
	</defs>
</svg>
