<svg width="16.000000" height="16.000000" viewBox="0 0 16 16" fill="none" xmlns="http://www.w3.org/2000/svg" xmlns:xlink="http://www.w3.org/1999/xlink">
	<desc>
			Created with Pixso.
	</desc>
	<g clip-path="url(#clip234_961)">
		<path d="M10.5 9L2.5 9C1.9502 9 1.5 9.45001 1.5 10L1.5 12C1.5 12.55 1.9502 13 2.5 13L10.5 13C11.0498 13 11.5 12.55 11.5 12L11.5 10C11.5 9.45001 11.0498 9 10.5 9ZM14.5 3L2.5 3C1.9502 3 1.5 3.45001 1.5 4L1.5 6C1.5 6.54999 1.9502 7 2.5 7L14.5 7C15.0498 7 15.5 6.54999 15.5 6L15.5 4C15.5 3.45001 15.0498 3 14.5 3ZM0.5 0C0.25 0 0 0.25 0 0.5L0 15.5C0 15.75 0.25 16 0.5 16C0.75 16 1 15.75 1 15.5L1 0.5C1 0.25 0.75 0 0.5 0Z" fill-rule="evenodd" fill="#000000"/>
	</g>
	<defs>
		<clipPath id="clip234_961">
			<rect width="16.000000" height="16.000000" fill="white"/>
		</clipPath>
	</defs>
</svg>
