<svg width="16.000000" height="16.000000" viewBox="0 0 16 16" fill="none" xmlns="http://www.w3.org/2000/svg" xmlns:xlink="http://www.w3.org/1999/xlink">
	<desc>
			Created with Pixso.
	</desc>
	<g clip-path="url(#clip234_963)">
		<path d="M6 1.5L4 1.5C3.4502 1.5 3 1.95001 3 2.5L3 10.5C3 11.05 3.4502 11.5 4 11.5L6 11.5C6.5498 11.5 7 11.05 7 10.5L7 2.5C7 1.95001 6.5498 1.5 6 1.5ZM12 1.5L10 1.5C9.4502 1.5 9 1.95001 9 2.5L9 14.5C9 15.05 9.4502 15.5 10 15.5L12 15.5C12.5498 15.5 13 15.05 13 14.5L13 2.5C13 1.95001 12.5498 1.5 12 1.5ZM15.5 0L0.5 0C0.25 0 0 0.25 0 0.5C0 0.75 0.25 1 0.5 1L15.5 1C15.75 1 16 0.75 16 0.5C16 0.200012 15.75 0 15.5 0Z" fill-rule="evenodd" fill="#000000"/>
	</g>
	<defs>
		<clipPath id="clip234_963">
			<rect width="16.000000" height="16.000000" fill="white"/>
		</clipPath>
	</defs>
</svg>
