<svg width="16.000000" height="16.000000" viewBox="0 0 16 16" fill="none" xmlns="http://www.w3.org/2000/svg" xmlns:xlink="http://www.w3.org/1999/xlink">
	<desc>
			Created with Pixso.
	</desc>
	<g clip-path="url(#clip234_970)">
		<path d="M15.7144 0L15.7144 16L14.5713 16L14.5713 0L15.7144 0ZM1.42871 0L1.42871 16L0.285645 16L0.285645 0L1.42871 0ZM6 2.28571L9.42871 2.28571C9.80957 2.28571 10 2.4762 10 2.85715L10 13.1429C10 13.5238 9.80957 13.7143 9.42871 13.7143L6 13.7143C5.61914 13.7143 5.42871 13.5238 5.42871 13.1429L5.42871 2.85715C5.42871 2.4762 5.61914 2.28571 6 2.28571L6 2.28571Z" fill-rule="evenodd" fill="#000000"/>
	</g>
	<defs>
		<clipPath id="clip234_970">
			<rect width="16.000000" height="16.000000" fill="white"/>
		</clipPath>
	</defs>
</svg>
