<svg width="16.000000" height="16.000000" viewBox="0 0 16 16" fill="none" xmlns="http://www.w3.org/2000/svg" xmlns:xlink="http://www.w3.org/1999/xlink">
	<desc>
			Created with Pixso.
	</desc>
	<g clip-path="url(#clip59_356)">
		<path d="M8 7.11621L12.4199 2.69678C12.4785 2.6377 12.5371 2.6377 12.5967 2.69678L13.3037 3.40381C13.3623 3.46289 13.3623 3.52197 13.3037 3.58057L8.88379 8L13.3037 12.4194C13.3623 12.4785 13.3623 12.5371 13.3037 12.5962L12.5967 13.3032C12.5371 13.3623 12.4785 13.3623 12.4199 13.3032L8 8.88379L3.58105 13.3032C3.52148 13.3623 3.46289 13.3623 3.4043 13.3032L2.69629 12.5962C2.6377 12.5371 2.6377 12.4785 2.69629 12.4194L7.11621 8L2.69727 3.58057C2.6377 3.52148 2.6377 3.46289 2.69727 3.40381L3.4043 2.69678C3.46289 2.6377 3.52148 2.6377 3.58105 2.69678L8 7.11621L8 7.11621Z" fill-rule="evenodd" fill="#000000"/>
	</g>
	<defs>
		<clipPath id="clip59_356">
			<rect width="16.000000" height="16.000000" fill="white"/>
		</clipPath>
	</defs>
</svg>
