<svg width="16.000000" height="16.000000" viewBox="0 0 16 16" fill="none" xmlns="http://www.w3.org/2000/svg" xmlns:xlink="http://www.w3.org/1999/xlink">
	<desc>
			Created with Pixso.
	</desc>
	<g clip-path="url(#clip234_1047)">
		<path d="M10 12.66C9.99707 11.3298 9.33008 10.6653 8 10.6667C6.89551 10.6667 6 11.562 6 12.66L6 13.3333L3.3335 13.3333L3.3335 10.6667L4.00684 10.6667C5.33691 10.6636 6.00146 9.99692 6 8.66669C6 7.56201 5.10449 6.66669 4.00684 6.66669L3.3335 6.66669L3.3335 5.33334L6.6665 5.33334L6.6665 2.66669C6.6665 2.29602 6.96191 2.00003 7.3335 2.00003C7.7041 2.00003 8 2.29535 8 2.66669L8 5.33334L11.3335 5.33334L11.3335 8.66669L14.0024 8.66669C14 8.66669 14 9.99335 14 9.99335C14 10.002 11.3335 10 11.3335 10L11.3335 13.3333L10 13.3333L10 12.66ZM12.6665 14.6667L12.6665 11.3333L14.0024 11.3333C14.8955 11.3329 15.3394 10.8863 15.3335 9.99335L15.3335 8.67334C15.3335 7.93536 14.7402 7.33334 14.0024 7.33334L12.6665 7.33334L12.6665 4.00003L9.3335 4.00003L9.3335 2.66669C9.3335 1.55801 8.43945 0.666687 7.3335 0.666687C6.2251 0.666687 5.3335 1.56003 5.3335 2.66669L5.3335 4.00003L2 4.00003L2 8.00003L4.6665 8.00003L4.6665 9.33334L2 9.33334L2 14.6667L7.3335 14.6667L7.3335 12L8.6665 12L8.6665 14.6667L12.6665 14.6667L12.6665 14.6667Z" fill-rule="evenodd" fill="#000000"/>
	</g>
	<defs>
		<clipPath id="clip234_1047">
			<rect width="16.000000" height="16.000000" fill="white"/>
		</clipPath>
	</defs>
</svg>
