<svg width="16.000000" height="16.000000" viewBox="0 0 16 16" fill="none" xmlns="http://www.w3.org/2000/svg" xmlns:xlink="http://www.w3.org/1999/xlink">
	<desc>
			Created with Pixso.
	</desc>
	<g clip-path="url(#clip59_2029)">
		<path d="M13.3493 4.46777L12.8078 14.8359L12.8073 14.8418C12.7675 15.2871 12.3892 15.6367 11.9461 15.6367L4.52667 15.6367C4.08362 15.6367 3.70514 15.2871 3.66534 14.8418L3.66455 14.8301L3.12363 4.46777C3.1145 4.29199 3.24994 4.1416 3.4263 4.13184C3.60281 4.12305 3.75311 4.25879 3.76239 4.43457L4.30283 14.7891C4.31531 14.9004 4.41873 14.9971 4.52667 14.9971L11.9461 14.9971C12.0539 14.9971 12.1573 14.9004 12.1698 14.79L12.7106 4.43457C12.7198 4.25879 12.8701 4.12305 13.0467 4.13184C13.223 4.1416 13.3585 4.29199 13.3493 4.46777ZM14.628 2.21484C14.628 2.3916 14.4849 2.53418 14.3082 2.53418L10.1539 2.53418C9.9772 2.53418 9.83411 2.3916 9.83411 2.21484L9.83411 1.25586C9.83411 1.08008 9.69086 0.936523 9.5148 0.936523L6.95831 0.936523C6.7821 0.936523 6.63885 1.08008 6.63885 1.25586L6.63885 2.21484C6.63885 2.3916 6.49573 2.53418 6.31906 2.53418L2.16476 2.53418C1.98822 2.53418 1.84497 2.3916 1.84497 2.21484C1.84497 2.03809 1.98822 1.89453 2.16476 1.89453L5.99927 1.89453L5.99927 1.25586C5.99927 0.726562 6.42953 0.296875 6.95831 0.296875L9.5148 0.296875C10.0434 0.296875 10.4737 0.726562 10.4737 1.25586L10.4737 1.89453L14.3082 1.89453C14.4849 1.89453 14.628 2.03809 14.628 2.21484ZM9.99432 4.77051L9.99432 13.7188C9.99432 13.8955 9.85107 14.0391 9.67453 14.0391C9.49786 14.0391 9.35477 13.8955 9.35477 13.7188L9.35477 4.77051C9.35477 4.59473 9.49786 4.45117 9.67453 4.45117C9.85107 4.45117 9.99432 4.59473 9.99432 4.77051ZM7.11819 4.77051L7.11819 13.7188C7.11819 13.8955 6.9751 14.0391 6.7984 14.0391C6.62189 14.0391 6.47864 13.8955 6.47864 13.7188L6.47864 4.77051C6.47864 4.59473 6.62189 4.45117 6.7984 4.45117C6.9751 4.45117 7.11819 4.59473 7.11819 4.77051Z" fill-rule="evenodd" fill="#000000"/>
	</g>
	<defs>
		<clipPath id="clip59_2029">
			<rect width="16.000000" height="16.000000" fill="white"/>
		</clipPath>
	</defs>
</svg>
