<svg width="16.000000" height="15.844727" viewBox="0 0 16 15.8447" fill="none" xmlns="http://www.w3.org/2000/svg" xmlns:xlink="http://www.w3.org/1999/xlink">
	<desc>
			Created with Pixso.
	</desc>
	<g clip-path="url(#clip298_401)">
		<path d="M12.0133 12.1475C11.8355 12.1475 11.7466 12.0596 11.7466 11.8835L11.7466 9.82373C11.7303 9.01196 11.4378 8.33276 10.8517 7.75244C10.2658 7.17236 9.58423 6.88232 8.76797 6.86597L4.65277 6.86597L6.91995 9.06738C7.04337 9.19067 7.0437 9.31421 6.92102 9.43823C6.79831 9.56201 6.67352 9.56421 6.54663 9.44434L3.81357 6.79077L3.8125 6.78979L3.81171 6.78882L3.81116 6.78857L3.81064 6.78809L3.81009 6.7876L3.80981 6.78735C3.69461 6.67139 3.69107 6.552 3.79916 6.42944C3.80368 6.42432 3.8085 6.41943 3.81329 6.41479L6.47864 3.77515C6.60431 3.65063 6.73004 3.65063 6.85583 3.77515C6.98163 3.89966 6.98157 4.02417 6.85568 4.14868L4.64371 6.33789L8.77328 6.33789C9.72583 6.35693 10.5501 6.70728 11.2285 7.37915C11.9074 8.05054 12.261 8.87158 12.2797 9.8186L12.2797 11.8835C12.2801 12.0598 12.1913 12.1477 12.0133 12.1475Z" fill-rule="evenodd" fill="#000000"/>
	</g>
	<defs>
		<clipPath id="clip298_401">
			<rect width="16.000000" height="15.844658" fill="white"/>
		</clipPath>
	</defs>
</svg>
