<svg width="16.000000" height="15.844727" viewBox="0 0 16 15.8447" fill="none" xmlns="http://www.w3.org/2000/svg" xmlns:xlink="http://www.w3.org/1999/xlink">
	<desc>
			Created with Pixso.
	</desc>
	<g clip-path="url(#clip298_403)">
		<path d="M3.99994 12.1475C3.82217 12.1475 3.73328 12.0596 3.73328 11.8833L3.73328 9.82349C3.75247 8.87134 4.10635 8.05054 4.78473 7.37915C5.46368 6.70728 6.28793 6.35669 7.23462 6.33789L11.3695 6.33789L9.15808 4.14771C9.03204 4.02319 9.03195 3.89868 9.15781 3.77417C9.28369 3.64941 9.40945 3.64966 9.53516 3.77441L12.2018 6.41504C12.2021 6.41528 12.2024 6.41553 12.2026 6.41577L12.2074 6.42041L12.2077 6.4209C12.3199 6.53833 12.3215 6.65723 12.2125 6.77783C12.2079 6.78247 12.2037 6.78735 12.1989 6.79175L9.46661 9.44434C9.33966 9.57129 9.21304 9.5708 9.08679 9.44336C8.96054 9.31592 8.96271 9.19043 9.09326 9.06738L11.3605 6.86597L7.23993 6.86597C6.42953 6.88232 5.74796 7.17236 5.1618 7.75244C4.57593 8.33203 4.28314 9.01147 4.2666 9.82886L4.2666 11.8833C4.2666 12.0596 4.17773 12.1475 3.99994 12.1475L3.99994 12.1475Z" fill-rule="evenodd" fill="#000000"/>
	</g>
	<defs>
		<clipPath id="clip298_403">
			<rect width="16.000000" height="15.844664" fill="white"/>
		</clipPath>
	</defs>
</svg>
