<svg width="16.000000" height="16.000000" viewBox="0 0 16 16" fill="none" xmlns="http://www.w3.org/2000/svg" xmlns:xlink="http://www.w3.org/1999/xlink">
	<desc>
			Created with Pixso.
	</desc>
	<g clip-path="url(#clip333_981)">
		<path d="M3.69287 14.4251L10.8975 14.4371C11.0742 14.4371 11.2173 14.5802 11.2173 14.7568C11.2173 14.9333 11.0742 15.0766 10.8975 15.0766L1.22217 15.0766C1.21826 15.0755 1.12256 15.0608 1.11865 15.0595C1.10059 15.045 0.987305 14.9751 0.972656 14.9569C0.970215 14.9495 0.915039 14.8456 0.913086 14.8382C0.913086 14.8347 0.902832 14.7396 0.90332 14.7361L1.55371 12.2862C1.56836 12.2314 1.59717 12.1816 1.6377 12.1417L11.5352 2.34589C11.6606 2.22165 11.8633 2.22263 11.9873 2.34814C12.1113 2.47382 12.1104 2.67624 11.9849 2.80048L2.14941 12.5355L1.6748 14.3044L3.44531 13.8293L13.2822 4.09305C13.4077 3.96881 13.6104 3.96991 13.7344 4.09543C13.8589 4.22095 13.8579 4.42337 13.7324 4.54761L3.83496 14.3435C3.79541 14.3825 3.74658 14.4107 3.69287 14.4251ZM14.4004 3.87463C14.3989 3.87589 14.6631 3.61154 14.6631 3.61154C15.269 3.00531 15.269 2.02271 14.6636 1.41693C14.0566 0.810577 13.0747 0.811035 12.4688 1.41693C12.4688 1.41693 12.2041 1.68158 12.2056 1.68005L14.4004 3.87463Z" fill-rule="evenodd" fill="#000000"/>
	</g>
	<defs>
		<clipPath id="clip333_981">
			<rect width="16.000000" height="16.000000" fill="white"/>
		</clipPath>
	</defs>
</svg>
