<svg width="16.000000" height="16.000000" viewBox="0 0 16 16" fill="none" xmlns="http://www.w3.org/2000/svg" xmlns:xlink="http://www.w3.org/1999/xlink">
	<desc>
			Created with Pixso.
	</desc>
	<g clip-path="url(#clip234_1208)">
		<path d="M8 4.42899C5.41797 4.42899 3.32178 5.59 1.62305 8.005C3.29785 10.413 5.39307 11.571 8 11.571C10.6069 11.571 12.7021 10.413 14.377 8.005C12.6782 5.59 10.582 4.42999 8 4.42999L8 4.42899ZM8 13C4.6582 13 1.99219 11.333 0 8C2.02197 4.66699 4.68799 3 8 3C11.312 3 13.978 4.66699 16 8C14.0078 11.333 11.3418 13 8 13ZM8 10.857C9.90527 10.8577 10.8579 9.90533 10.8579 8C10.8579 6.09467 9.90527 5.14233 8 5.14301C6.09619 5.14365 5.14404 6.09598 5.14404 8C5.14404 9.90402 6.09619 10.8564 8 10.857ZM8 9C7.3335 9 7 8.66666 7 8C7 7.33334 7.3335 7 8 7C8.6665 7 9 7.33334 9 8C9 8.66666 8.6665 9 8 9Z" fill-rule="evenodd" fill="#262626"/>
	</g>
	<defs>
		<clipPath id="clip234_1208">
			<rect width="16.000000" height="16.000000" fill="white"/>
		</clipPath>
	</defs>
</svg>
