<svg width="16.000000" height="16.000000" viewBox="0 0 16 16" fill="none" xmlns="http://www.w3.org/2000/svg" xmlns:xlink="http://www.w3.org/1999/xlink">
	<desc>
			Created with Pixso.
	</desc>
	<g clip-path="url(#clip234_1234)">
		<path d="M16.0068 4.00827C16.0093 2.67139 15.3423 2.00296 14.0054 2.00296L8.01123 2.00296L8.29053 2.11737L6.26709 0.134064L6.15039 0.0206604L0.012207 0.0206604L0.012207 11.2697C0.012207 12.3804 0.906738 13.2809 2.00928 13.2809L13.8198 13.2809C14.0405 13.2809 14.2202 13.1008 14.2202 12.8794C14.2202 12.6572 14.0405 12.4774 13.8198 12.4774L2.00928 12.4774C1.34863 12.4774 0.811523 11.9367 0.811523 11.27L0.811523 0.422241L0.411621 0.823853L5.98828 0.823853L5.70947 0.709778L7.73242 2.69272L7.84863 2.80679L14.0054 2.80679C14.8076 2.80569 15.208 3.20618 15.207 4.00827L15.207 11.0912C15.207 11.313 15.3857 11.4928 15.6069 11.4928C15.8276 11.4928 16.0068 11.313 16.0068 11.0912L16.0068 4.00827L16.0068 4.00827ZM15.207 6.24973L15.21 5.44586L0.812988 5.44586L0.812988 6.24973L15.207 6.24973L15.207 6.24973Z" fill-rule="evenodd" fill="#000000"/>
	</g>
	<defs>
		<clipPath id="clip234_1234">
			<rect width="16.000000" height="16.000000" fill="white"/>
		</clipPath>
	</defs>
</svg>
