<svg width="16.000000" height="16.000000" viewBox="0 0 16 16" fill="none" xmlns="http://www.w3.org/2000/svg" xmlns:xlink="http://www.w3.org/1999/xlink">
	<desc>
			Created with Pixso.
	</desc>
	<g clip-path="url(#clip234_1034)">
		<path d="M11.7983 10.2471L12.1724 10.2471L12.1724 10.2776C12.1924 10.4659 12.2026 10.6082 12.2026 10.7049C12.2026 11.244 12.0796 11.6776 11.8325 12.0057C11.5859 12.3338 11.2666 12.4978 10.875 12.4978C10.5342 12.4978 10.2637 12.4012 10.0625 12.2079C9.86182 12.0146 9.67969 11.6738 9.51709 11.1855L8.06006 6.92068L5.62598 12.4062L3.98584 12.4062L7.34277 4.76923L7.01465 3.83081C6.85693 3.38321 6.68262 3.0755 6.49219 2.90765C6.30127 2.73981 6.04346 2.65588 5.71777 2.65588C5.39209 2.65588 5.1416 2.72327 4.96631 2.85806C4.79053 2.99283 4.68799 3.19757 4.65723 3.47223L4.35986 3.47223C4.35986 3.43661 4.35693 3.39212 4.35205 3.33871C4.34717 3.28531 4.34424 3.24588 4.34424 3.22046C4.34424 2.6813 4.47168 2.24896 4.72607 1.92346C4.97998 1.59793 5.31592 1.43518 5.73291 1.43518C6.13477 1.43518 6.45264 1.5636 6.68652 1.82047C6.92041 2.07733 7.1875 2.64316 7.48779 3.51801L9.56299 9.60626C9.77637 10.242 9.97607 10.6566 10.1616 10.8499C10.3477 11.0431 10.5952 11.1398 10.9058 11.1398C11.165 11.1398 11.3726 11.0622 11.5273 10.9071C11.6826 10.7519 11.7729 10.532 11.7983 10.2471L11.7983 10.2471Z" fill-rule="evenodd" fill="#000000"/>
		<path d="M11.7983 10.2471L12.1724 10.2471L12.1724 10.2776C12.1924 10.4659 12.2026 10.6082 12.2026 10.7049C12.2026 11.244 12.0796 11.6776 11.8325 12.0057C11.5859 12.3338 11.2666 12.4978 10.875 12.4978C10.5342 12.4978 10.2637 12.4012 10.0625 12.2079C9.86182 12.0146 9.67969 11.6738 9.51709 11.1855L8.06006 6.92068L5.62598 12.4062L3.98584 12.4062L7.34277 4.76923L7.01465 3.83081C6.85693 3.38321 6.68262 3.0755 6.49219 2.90765C6.30127 2.73981 6.04346 2.65588 5.71777 2.65588C5.39209 2.65588 5.1416 2.72327 4.96631 2.85806C4.79053 2.99283 4.68799 3.19757 4.65723 3.47223L4.35986 3.47223C4.35986 3.43661 4.35693 3.39212 4.35205 3.33871C4.34717 3.28531 4.34424 3.24588 4.34424 3.22046C4.34424 2.6813 4.47168 2.24896 4.72607 1.92346C4.97998 1.59793 5.31592 1.43518 5.73291 1.43518C6.13477 1.43518 6.45264 1.5636 6.68652 1.82047C6.92041 2.07733 7.1875 2.64316 7.48779 3.51801L9.56299 9.60626C9.77637 10.242 9.97607 10.6566 10.1616 10.8499C10.3477 11.0431 10.5952 11.1398 10.9058 11.1398C11.165 11.1398 11.3726 11.0622 11.5273 10.9071C11.6826 10.7519 11.7729 10.532 11.7983 10.2471L11.7983 10.2471Z" fill-rule="evenodd" fill="#000000"/>
		<path d="M4.59326 2.47089C4.68115 2.47891 4.72559 2.45917 4.72266 2.41074C4.71875 2.3486 4.69824 2.33981 4.5957 2.33984L4.59375 2.33984C4.59131 2.33984 4.58984 2.34116 4.58984 2.34375C4.58984 2.34634 4.59131 2.34766 4.59375 2.34766L4.5957 2.34766C4.69434 2.34766 4.71143 2.35486 4.71484 2.41119C4.71729 2.45319 4.67773 2.47076 4.59424 2.4631C4.59131 2.46286 4.59033 2.46405 4.58984 2.46664C4.58984 2.46924 4.59082 2.47064 4.59326 2.47089L4.59326 2.47089ZM4.57812 2.5195L4.72705 2.5195C4.72949 2.5195 4.73096 2.51822 4.73096 2.51559C4.73096 2.513 4.72949 2.51169 4.72705 2.51169L4.57812 2.51169C4.57568 2.51169 4.57422 2.513 4.57422 2.51559C4.57422 2.51822 4.57568 2.5195 4.57812 2.5195Z" fill-rule="evenodd" fill="#666666"/>
	</g>
	<defs>
		<clipPath id="clip234_1034">
			<rect width="16.000000" height="16.000000" fill="white"/>
		</clipPath>
	</defs>
</svg>
