<svg width="16.000000" height="16.000000" viewBox="0 0 16 16" fill="none" xmlns="http://www.w3.org/2000/svg" xmlns:xlink="http://www.w3.org/1999/xlink">
	<desc>
			Created with Pixso.
	</desc>
	<g clip-path="url(#clip234_1199)">
		<path d="M14.5 3L1.5 3C1.22363 3 1 3.22345 1 3.5L1 13.5C1 13.7766 1.22363 14 1.5 14L14.5 14C14.7764 14 15 13.7766 15 13.5L15 3.5C15 3.22345 14.7764 3 14.5 3ZM13.875 12.875L2.125 12.875L2.125 12.2516L4.28906 9.68439L6.63428 12.4656L10.2827 8.14062L13.875 12.4L13.875 12.875ZM13.875 10.8469L10.3779 6.70001C10.3281 6.64062 10.2373 6.64062 10.1875 6.70001L6.63428 10.9125L4.38428 8.2453C4.33447 8.18594 4.24365 8.18594 4.19385 8.2453L2.125 10.6984L2.125 4.125L13.875 4.125L13.875 10.8469ZM4.75 7.625C5.50928 7.625 6.125 7.00937 6.125 6.25C6.125 5.49063 5.50928 4.875 4.75 4.875C3.99072 4.875 3.375 5.49063 3.375 6.25C3.375 7.00937 3.99072 7.625 4.75 7.625ZM4.75 5.8125C4.99219 5.8125 5.1875 6.00781 5.1875 6.25C5.1875 6.49219 4.99219 6.6875 4.75 6.6875C4.50781 6.6875 4.3125 6.49219 4.3125 6.25C4.3125 6.00781 4.50781 5.8125 4.75 5.8125Z" fill-rule="evenodd" fill="#000000"/>
	</g>
	<defs>
		<clipPath id="clip234_1199">
			<rect width="16.000000" height="16.000000" fill="white"/>
		</clipPath>
	</defs>
</svg>
