<svg width="16.000000" height="16.000000" viewBox="0 0 16 16" fill="none" xmlns="http://www.w3.org/2000/svg" xmlns:xlink="http://www.w3.org/1999/xlink">
	<desc>
			Created with Pixso.
	</desc>
	<g clip-path="url(#clip296_979)">
		<path d="M13.9751 5.92661L12.063 5.92661L12.063 4.33344C12.063 3.3111 11.665 2.34998 10.9424 1.62726C10.2197 0.904572 9.25879 0.506592 8.23633 0.506592C7.21387 0.506592 6.25293 0.904572 5.53027 1.62726C4.80762 2.34998 4.40967 3.3111 4.40967 4.33344L4.40967 5.92661L2.49756 5.92661C2.3208 5.92661 2.17773 6.06985 2.17773 6.24637L2.17773 15.1736C2.17773 15.3501 2.3208 15.4934 2.49756 15.4934L13.9751 15.4934C14.1519 15.4934 14.2949 15.3501 14.2949 15.1736L14.2949 6.24637C14.2949 6.06985 14.1519 5.92661 13.9751 5.92661ZM5.04883 4.33344C5.04883 3.48184 5.38037 2.68143 5.98242 2.07944C6.58447 1.4776 7.38477 1.14615 8.23633 1.14615C9.08789 1.14615 9.88818 1.4776 10.4902 2.07944C11.0923 2.68143 11.4238 3.48184 11.4238 4.33344L11.4238 5.92661L5.04883 5.92661L5.04883 4.33344L5.04883 4.33344ZM13.6553 14.8538L2.81738 14.8538L2.81738 6.56616L13.6553 6.56616L13.6553 14.8538ZM9.19287 10.0723C9.19287 10.3546 9.06836 10.6057 8.87402 10.7806L8.87402 11.6664C8.87402 12.0186 8.58838 12.3042 8.23633 12.3042C7.88428 12.3042 7.59863 12.0186 7.59863 11.6664L7.59863 10.7806C7.4043 10.6057 7.27979 10.3546 7.27979 10.0723C7.27979 9.54398 7.70801 9.11578 8.23633 9.11578C8.76465 9.11578 9.19287 9.54398 9.19287 10.0723Z" fill-rule="evenodd" fill="#000000"/>
	</g>
	<defs>
		<clipPath id="clip296_979">
			<rect width="16.000000" height="16.000000" fill="white"/>
		</clipPath>
	</defs>
</svg>
