<svg width="16.000000" height="16.000000" viewBox="0 0 16 16" fill="none" xmlns="http://www.w3.org/2000/svg" xmlns:xlink="http://www.w3.org/1999/xlink">
	<desc>
			Created with Pixso.
	</desc>
	<g clip-path="url(#clip296_975)">
		<path d="M1.4668 5.04333C1.50879 5.04321 1.54346 5.05945 1.57031 5.09201C1.65771 5.19901 1.73047 5.28534 1.79004 5.35199C3.31592 7.056 5.53271 8.12866 8.00049 8.12866C10.5435 8.12866 12.8203 6.98932 14.3491 5.19366C14.3726 5.16568 14.3999 5.133 14.4302 5.09567C14.4697 5.04712 14.519 5.03333 14.5781 5.05426C14.6372 5.07523 14.6665 5.11703 14.667 5.17966L14.667 5.33301L14.667 5.46301L14.667 6.27167C14.667 6.30856 14.6538 6.34 14.6279 6.366C14.1548 6.84369 13.6357 7.26559 13.0718 7.63165L14.3604 9.16699C14.4175 9.23511 14.4116 9.29767 14.3438 9.35468L13.7822 9.82599C13.7144 9.883 13.6519 9.87753 13.5947 9.80966L12.1914 8.13699C11.4683 8.50104 10.7109 8.76581 9.91846 8.93134L10.6069 10.8223C10.6377 10.9059 10.6113 10.9629 10.5273 10.9933L9.83838 11.244C9.75488 11.2745 9.69775 11.248 9.66748 11.1643L8.91064 9.08466C8.22803 9.15079 7.54639 9.14267 6.86572 9.06033L6.1001 11.1643C6.06982 11.2481 6.0127 11.2748 5.9292 11.2443L5.24023 10.9933C5.15625 10.9631 5.12988 10.9061 5.16016 10.8223L5.86621 8.88333C5.15137 8.71613 4.46582 8.46744 3.81006 8.13733L2.40674 9.80966C2.34961 9.87799 2.28711 9.88354 2.21875 9.82632L1.65674 9.35434C1.58887 9.29733 1.5835 9.23477 1.64014 9.16666L2.92871 7.63132C2.479 7.33954 2.05713 7.01154 1.66357 6.64734C1.5957 6.58432 1.49854 6.49066 1.37305 6.366C1.34668 6.34 1.3335 6.30856 1.3335 6.27167L1.3335 5.17633C1.3335 5.103 1.39355 5.043 1.4668 5.043L1.4668 5.04333Z" fill-rule="evenodd" fill="#333333"/>
	</g>
	<defs>
		<clipPath id="clip296_975">
			<rect width="16.000000" height="16.000000" fill="white"/>
		</clipPath>
	</defs>
</svg>
