<svg width="16.000000" height="16.000000" viewBox="0 0 16 16" fill="none" xmlns="http://www.w3.org/2000/svg" xmlns:xlink="http://www.w3.org/1999/xlink">
	<desc>
			Created with Pixso.
	</desc>
	<g clip-path="url(#clip15_1417)">
		<path d="M1.73334 5.5L7.73334 8.5C7.80005 8.53333 7.90002 8.56665 8 8.56665C8.10004 8.56665 8.16669 8.53333 8.26666 8.5L14.2667 5.5C14.4667 5.40002 14.5667 5.20001 14.5667 5C14.5667 4.79999 14.4333 4.60004 14.2667 4.5L8.26666 1.5C8.10004 1.43335 7.93335 1.43335 7.76666 1.5L1.76666 4.5C1.56671 4.60004 1.46667 4.79999 1.46667 5C1.46667 5.20001 1.56671 5.40002 1.73334 5.5L1.73334 5.5ZM8 2.63336L12.7333 5L8 7.3667L3.26666 5L8 2.63336ZM13.7333 10.5L8 13.3667L2.26666 10.5C2 10.3667 1.66669 10.4667 1.5 10.7667C1.3667 11.0333 1.46667 11.3667 1.76666 11.5333L7.76666 14.5333C7.83337 14.5667 7.93335 14.6 8.03333 14.6C8.13336 14.6 8.20001 14.5667 8.30005 14.5333L14.3 11.5333C14.5667 11.4 14.7 11.0667 14.5667 10.7667C14.3667 10.4667 14.0333 10.3667 13.7333 10.5L13.7333 10.5ZM13.7333 7.5L8 10.3667L2.26666 7.5C2 7.3667 1.66669 7.46667 1.5 7.76666C1.3667 8.03333 1.46667 8.3667 1.76666 8.53333L7.76666 11.5333C7.83337 11.5667 7.93335 11.6 8.03333 11.6C8.13336 11.6 8.20001 11.5667 8.30005 11.5333L14.3 8.53333C14.5667 8.40002 14.7 8.06665 14.5667 7.76666C14.3667 7.46667 14.0333 7.3667 13.7333 7.5L13.7333 7.5Z" fill-rule="evenodd" fill="#000000"/>
	</g>
	<defs>
		<clipPath id="clip15_1417">
			<rect width="16.000000" height="16.000000" fill="white"/>
		</clipPath>
	</defs>
</svg>
