<svg width="16.000000" height="16.000000" viewBox="0 0 16 16" fill="none" xmlns="http://www.w3.org/2000/svg" xmlns:xlink="http://www.w3.org/1999/xlink">
	<desc>
			Created with Pixso.
	</desc>
	<g clip-path="url(#clip298_394)">
		<path d="M7.98663 14.2668C5.86047 14.2668 4.02051 13.5049 2.51807 12.002L2.42505 11.9092C2.29889 11.7837 2.29858 11.6577 2.42413 11.5317C2.54974 11.4058 2.67554 11.4055 2.80157 11.531L2.89545 11.6248C4.29437 13.0242 6.00714 13.7334 7.98663 13.7334C9.96637 13.7334 11.684 13.0237 13.092 11.6243L13.1434 11.5728C13.2682 11.4424 13.3948 11.4404 13.5235 11.5671C13.6521 11.6941 13.652 11.8206 13.5231 11.9473L13.4672 12.0032C11.9565 13.5051 10.1125 14.2668 7.98663 14.2668ZM7.99969 12.9333C6.09515 12.9333 4.44366 12.2478 3.09119 10.8953C2.44794 10.2515 1.95355 9.53735 1.62207 8.77271L1.62183 8.56177C1.9538 7.78662 2.44849 7.06787 3.09167 6.42456C3.57892 5.9375 4.11115 5.53613 4.67328 5.23218C5.66608 4.68066 6.78638 4.40015 7.99994 4.40015C9.2229 4.40015 10.3434 4.68066 11.3304 5.23413C11.9073 5.55835 12.429 5.95508 12.8951 6.4248C13.5373 7.06763 14.0359 7.78564 14.3773 8.55933L14.3768 8.77563C14.0373 9.53809 13.5386 10.2515 12.8951 10.8955C12.0589 11.7402 11.0973 12.3328 10.0373 12.6555C9.64117 12.7683 9.2384 12.8472 8.82904 12.8921C8.55328 12.9199 8.27686 12.9338 7.99969 12.9333L7.99969 12.9333ZM2.15839 8.66626C2.46234 9.32935 2.90265 9.95215 3.46851 10.5183C4.71729 11.7671 6.24182 12.4001 7.99994 12.4001C8.26825 12.4001 8.52795 12.387 8.77222 12.3613C9.14984 12.3201 9.52142 12.2473 9.8869 12.1438C10.8571 11.8486 11.7434 11.3015 12.5176 10.5193C13.0848 9.95142 13.5293 9.32886 13.8408 8.66626C13.5282 7.9939 13.0837 7.36719 12.5186 6.802C12.0872 6.36719 11.6046 5.99976 11.0706 5.69971C10.1631 5.19092 9.13037 4.93335 7.99994 4.93335C6.87781 4.93335 5.84479 5.19116 4.92957 5.69971C4.40985 5.9812 3.91919 6.35132 3.46851 6.802C2.90289 7.36719 2.46265 7.99414 2.15839 8.66626L2.15839 8.66626ZM7.99994 10.2668C7.56396 10.2668 7.18207 10.1057 6.86475 9.78857C6.55621 9.48022 6.39996 9.10303 6.39996 8.66675C6.39996 8.23242 6.55542 7.85156 6.86157 7.53467L6.86768 7.52856C7.18475 7.22217 7.56555 7.06665 7.99994 7.06665C8.43622 7.06665 8.81354 7.2229 9.12183 7.53149C9.4389 7.84888 9.59998 8.23071 9.59998 8.66675C9.59998 9.10449 9.43811 9.48315 9.11865 9.79175C8.81647 10.105 8.43781 10.2668 7.99994 10.2668ZM7.24182 7.90869C7.03412 8.12476 6.93329 8.37256 6.93329 8.66675C6.93329 8.96045 7.03412 9.2041 7.24182 9.41162C7.45862 9.62817 7.70636 9.7334 7.99994 9.7334C8.29169 9.7334 8.53436 9.62915 8.74158 9.41479C8.96234 9.20117 9.06665 8.9585 9.06665 8.66675C9.06665 8.37305 8.9613 8.12549 8.74475 7.90869C8.53729 7.70093 8.29358 7.6001 7.99994 7.6001C7.70612 7.6001 7.45807 7.70093 7.24182 7.90869L7.24182 7.90869ZM2.61652 5.87012C2.54401 5.87109 2.48206 5.8457 2.4306 5.79468C2.3269 5.69043 2.3205 5.52808 2.42505 5.42432L2.43835 5.41089L2.51727 5.33228C2.8136 5.03516 3.13025 4.76147 3.46741 4.51147L2.47809 3.52222C2.35223 3.39648 2.35217 3.27075 2.47797 3.14502C2.60376 3.01929 2.72949 3.01929 2.85516 3.14502L3.91541 4.20532C5.04425 3.49243 6.3266 3.11133 7.73328 3.0708L7.73328 2C7.73328 1.82227 7.8222 1.7334 7.99994 1.7334C8.17773 1.7334 8.2666 1.82227 8.2666 2L8.2666 3.0708C9.66901 3.11401 10.9509 3.49902 12.0837 4.21729L13.1437 3.14575C13.2686 3.01514 13.3954 3.01318 13.5239 3.14038C13.6524 3.26733 13.6521 3.39429 13.5229 3.52051L12.5293 4.52515C12.8594 4.77246 13.1718 5.04053 13.4664 5.3291L13.5226 5.38501C13.6478 5.51123 13.6472 5.63696 13.5211 5.76221C13.3949 5.88745 13.2692 5.88696 13.144 5.76074L13.0922 5.70898C12.7443 5.36743 12.3702 5.05786 11.9698 4.77979C10.8117 3.99707 9.47595 3.6001 7.99994 3.6001C6.51038 3.6001 5.17865 3.99292 4.02905 4.76782C3.62091 5.04492 3.24292 5.35864 2.89514 5.7085L2.81464 5.78906C2.76105 5.84253 2.68848 5.87012 2.61652 5.87012Z" fill-rule="evenodd" fill="#000000"/>
	</g>
	<defs>
		<clipPath id="clip298_394">
			<rect width="16.000000" height="16.000000" fill="white"/>
		</clipPath>
	</defs>
</svg>
