<svg width="16.000000" height="16.000000" viewBox="0 0 16 16" fill="none" xmlns="http://www.w3.org/2000/svg" xmlns:xlink="http://www.w3.org/1999/xlink">
	<desc>
			Created with Pixso.
	</desc>
	<g clip-path="url(#clip298_396)">
		<path d="M7.61359 12.9514L5.64777 15.1101C5.39478 15.3872 4.93317 15.2087 4.93317 14.833L4.93317 10.7141C4.93304 10.5894 4.97992 10.4861 5.07385 10.4041L14.7239 1.99316L1.37274 5.25513C1.18439 5.30103 1.06659 5.41797 1.01929 5.60596C0.971924 5.79395 1.02045 5.95264 1.16467 6.08203L4.45129 8.99902C4.65582 9.18091 4.6673 9.37402 4.4856 9.57886C4.30389 9.78345 4.11066 9.79492 3.90588 9.61353L0.618774 6.69482C0.22821 6.34521 0.0964966 5.91626 0.223572 5.40771C0.350647 4.89917 0.668762 4.58276 1.17786 4.45801L14.5717 1.18506C15.101 1.05542 15.5392 1.20093 15.8862 1.62109C16.2333 2.04126 16.2932 2.49902 16.066 2.99438L11.1088 13.8123C10.6181 14.8833 9.93359 15.0264 9.05536 14.241L7.61359 12.9514L7.61359 12.9514ZM7.00134 12.4038L5.75452 11.2891L5.75452 13.7729L7.00134 12.4038ZM6.15863 10.5481L9.60291 13.6289C9.92792 13.9197 10.1811 13.8667 10.3624 13.47L15.3192 2.65259C15.3369 2.61401 15.3492 2.57397 15.3564 2.53198L6.15863 10.5488L6.15863 10.5481Z" fill-rule="evenodd" fill="#000000"/>
	</g>
	<defs>
		<clipPath id="clip298_396">
			<rect width="16.000000" height="16.000000" fill="white"/>
		</clipPath>
	</defs>
</svg>
