<svg width="16.000000" height="16.000000" viewBox="0 0 16 16" fill="none" xmlns="http://www.w3.org/2000/svg" xmlns:xlink="http://www.w3.org/1999/xlink">
	<desc>
			Created with Pixso.
	</desc>
	<g clip-path="url(#clip298_392)">
		<path d="M10.4 5.19995L10.4 2C10.4 1.77905 10.2209 1.6001 10 1.6001C9.77911 1.6001 9.59998 1.77905 9.59998 2L9.59998 5.19995C9.59998 5.4209 9.77911 5.6001 10 5.6001C10.2209 5.6001 10.4 5.4209 10.4 5.19995L10.4 5.19995ZM10 0.800049L12.8 0.800049L12.4 0.399902L12.4 6.0022C12.4 6.6626 11.861 7.19995 11.1989 7.19995L4.40112 7.19995C3.7381 7.19995 3.20001 6.6626 3.20001 6.0022L3.20001 0.399902C3.20001 0.179199 3.02094 0 2.79999 0C2.5791 0 2.40002 0.179199 2.40002 0.399902L2.40002 6.0022C2.40002 7.10474 3.29651 8 4.40112 8L11.1989 8C12.3022 8 13.2 7.10498 13.2 6.0022L13.2 0.399902L13.2 0L12.8 0L10 0C9.77911 0 9.59998 0.179199 9.59998 0.399902C9.59998 0.62085 9.77911 0.800049 10 0.800049L10 0.800049ZM13.2 15.2L2.00128 15.2C1.33661 15.2 0.799988 14.6653 0.799988 14.0024L0.799988 1.57373L0.799988 0.399902L0.400024 0.800049L1.59998 0.800049L14.0037 0.800049C14.6653 0.800049 15.2 1.33472 15.2 1.99805L15.2 15.6001C15.2 15.8208 15.3791 16 15.6 16C15.8209 16 16 15.8208 16 15.6001L16 1.99805C16 0.892822 15.1071 0 14.0037 0L1.59998 0L0.400024 0L0 0L0 0.399902L0 1.57373L0 14.0024C0 15.1077 0.895447 16 2.00128 16L13.2 16C13.4209 16 13.6 15.8208 13.6 15.6001C13.6 15.3792 13.4209 15.2 13.2 15.2L13.2 15.2Z" fill-rule="evenodd" fill="#000000"/>
	</g>
	<defs>
		<clipPath id="clip298_392">
			<rect width="16.000000" height="16.000000" fill="white"/>
		</clipPath>
	</defs>
</svg>
