<svg width="16.000000" height="16.000000" viewBox="0 0 16 16" fill="none" xmlns="http://www.w3.org/2000/svg" xmlns:xlink="http://www.w3.org/1999/xlink">
    <g clip-path="url(#clip264_989)">
        <path d="M8 9.5C7.17303 9.5 6.5 8.82715 6.5 8C6.5 7.1731 7.17303 6.5 8 6.5C8.82703 6.5 9.5 7.1731 9.5 8C9.5 8.82715 8.82703 9.5 8 9.5ZM8 7.5C7.72449 7.5 7.5 7.72461 7.5 8C7.5 8.27563 7.72449 8.5 8 8.5C8.27551 8.5 8.5 8.27563 8.5 8C8.5 7.72461 8.27551 7.5 8 7.5ZM9.85999 15C9.70349 15 9.552 14.926 9.45599 14.7952L8.30902 13.2251C8.09552 13.238 7.90399 13.2385 7.69049 13.2251L6.54401 14.7952C6.42053 14.9641 6.20453 15.0391 6.0025 14.9807C5.46204 14.8262 4.948 14.614 4.47504 14.3506C4.29199 14.2485 4.19202 14.0437 4.22449 13.8367L4.52454 11.9106C4.37103 11.7747 4.22552 11.6292 4.08948 11.4761L2.16351 11.7761C1.95953 11.8071 1.75201 11.708 1.64954 11.5251C1.3855 11.0505 1.17352 10.5361 1.01953 9.99658C0.962036 9.79565 1.03601 9.5791 1.20551 9.45557L2.77502 8.30908C2.76801 8.20264 2.76453 8.1001 2.76453 8C2.76453 7.90015 2.76801 7.79761 2.77502 7.69116L1.20502 6.54419C1.03601 6.42017 0.961487 6.20459 1.01898 6.00269C1.17303 5.46362 1.38501 4.94971 1.64899 4.47461C1.75153 4.2915 1.95703 4.19263 2.16302 4.22363L4.08899 4.52368C4.22552 4.37012 4.37048 4.2251 4.52399 4.08862L4.224 2.1626C4.19202 1.95605 4.29248 1.75122 4.47552 1.64917C4.9505 1.38501 5.46454 1.1731 6.00299 1.01904C6.20502 0.962158 6.42053 1.03564 6.54449 1.20508L7.69104 2.77466C7.90302 2.7605 8.09448 2.7605 8.30951 2.77466L9.45648 1.20459C9.58002 1.03516 9.79498 0.962158 9.99799 1.01855C10.5365 1.17261 11.05 1.38452 11.5255 1.64868C11.7085 1.75049 11.8085 1.95557 11.7765 2.1626L11.4755 4.09009C11.629 4.22656 11.774 4.37158 11.91 4.52417L13.837 4.22412C14.0425 4.19263 14.2485 4.29248 14.3505 4.47461C14.6145 4.94971 14.827 5.46362 14.981 6.00317C15.038 6.20459 14.964 6.42017 14.795 6.54419L13.225 7.69116C13.232 7.79761 13.2355 7.90015 13.2355 8C13.2355 8.1001 13.232 8.20264 13.225 8.30908L14.795 9.45557C14.964 9.5791 15.038 9.79517 14.981 9.99658C14.827 10.5356 14.615 11.05 14.3505 11.5251C14.2485 11.708 14.046 11.8071 13.8365 11.7761L11.91 11.4761C11.7745 11.6287 11.629 11.7742 11.4755 11.9102L11.776 13.8367C11.808 14.0437 11.708 14.2485 11.525 14.3506C11.0525 14.6135 10.5385 14.8257 9.9975 14.9807C9.95203 14.9937 9.90601 15 9.85999 15ZM5.26801 13.6355C5.48651 13.7412 5.71399 13.834 5.94849 13.9155L7.05054 12.4065C7.15649 12.2617 7.33148 12.1836 7.51099 12.2051C7.83252 12.2417 8.16852 12.2417 8.4895 12.2051C8.6745 12.1836 8.84448 12.2617 8.95001 12.4065L10.052 13.9155C10.287 13.8347 10.5145 13.7412 10.7325 13.6355L10.4445 11.7861C10.417 11.6086 10.487 11.4292 10.6275 11.3171C10.8835 11.114 11.116 10.8816 11.3175 10.6277C11.4295 10.4871 11.605 10.4165 11.7865 10.4441L13.636 10.7322C13.7415 10.5132 13.835 10.2856 13.916 10.0515L12.407 8.94971C12.262 8.84351 12.185 8.66821 12.2055 8.48901C12.2235 8.32861 12.236 8.16553 12.236 8C12.236 7.83472 12.224 7.67163 12.2055 7.51099C12.185 7.33252 12.262 7.15649 12.407 7.05054L13.916 5.948C13.8355 5.71362 13.7415 5.48608 13.636 5.26758L11.786 5.55566C11.609 5.58203 11.4295 5.51367 11.3175 5.37207C11.116 5.11816 10.8835 4.88599 10.6275 4.68262C10.487 4.57056 10.417 4.39209 10.4445 4.21411L10.7325 2.36401C10.5135 2.25854 10.286 2.16504 10.0525 2.08398L8.95001 3.59302C8.84399 3.73804 8.67352 3.81763 8.4895 3.79517C8.16852 3.75806 7.83301 3.75757 7.51202 3.79517C7.33203 3.81616 7.15649 3.73853 7.05054 3.59351L5.94849 2.08472C5.71448 2.16504 5.487 2.25854 5.26801 2.3645L5.55603 4.21411C5.5835 4.39209 5.51349 4.57104 5.3725 4.68311C5.11749 4.88501 4.88501 5.11768 4.68298 5.37256C4.57098 5.51367 4.39301 5.58301 4.21399 5.55615L2.3645 5.26807C2.25903 5.48706 2.16553 5.7146 2.08453 5.94849L3.59351 7.05103C3.73901 7.15698 3.81598 7.3335 3.79498 7.5127C3.77649 7.67212 3.76453 7.83472 3.76453 8C3.76453 8.16553 3.77649 8.32812 3.79498 8.48853C3.81598 8.66748 3.73853 8.84302 3.59351 8.94971L2.08453 10.0515C2.16553 10.2861 2.25903 10.5137 2.3645 10.7322L4.21399 10.4441C4.39203 10.4165 4.57098 10.4871 4.68298 10.6277C4.88452 10.8826 5.11652 11.1145 5.3725 11.3171C5.51349 11.4292 5.5835 11.6082 5.55603 11.7861L5.26801 13.6355Z" fill-rule="evenodd" fill="#000000"/>
    </g>
    <defs>
        <clipPath id="clip264_989">
            <rect width="16.000000" height="16.000000" fill="white"/>
        </clipPath>
    </defs>
</svg>