<svg width="16.000000" height="16.000000" viewBox="0 0 16 16" fill="none" xmlns="http://www.w3.org/2000/svg" xmlns:xlink="http://www.w3.org/1999/xlink">
	<desc>
			Created with Pixso.
	</desc>
	<g clip-path="url(#clip234_1042)">
		<path d="M13.3335 11.5679L13.3335 12.0124C13.3335 12.7487 12.7363 13.3457 12 13.3457L1.3335 13.3457C0.597168 13.3457 0 12.7487 0 12.0124L0 4.90125C0 4.16486 0.597168 3.5679 1.3335 3.5679L1.77783 3.5679L1.77783 4.90125L1.5 4.90125C1.38867 4.90125 1.3335 4.95679 1.3335 5.0679L1.3335 11.8457C1.3335 11.9568 1.38867 12.0124 1.5 12.0124L11.8335 12.0124C11.9443 12.0124 12 11.9568 12 11.8457L12 11.5679L13.3335 11.5679ZM14.5 2.23459L4.1665 2.23459C4.05566 2.23459 4 2.29013 4 2.40125L4 9.17902C4 9.29013 4.05566 9.3457 4.1665 9.3457L14.5 9.3457C14.6113 9.3457 14.6665 9.29013 14.6665 9.17902L14.6665 2.40125C14.6665 2.29013 14.6113 2.23459 14.5 2.23459ZM14.6665 0.901245C15.4028 0.901245 16 1.4982 16 2.23459L16 9.3457C16 10.0821 15.4028 10.679 14.6665 10.679L4 10.679C3.26367 10.679 2.6665 10.0821 2.6665 9.3457L2.6665 2.23459C2.6665 1.4982 3.26367 0.901245 4 0.901245L14.6665 0.901245ZM7.3335 4.01236C7.3335 4.62601 6.83594 5.12347 6.22217 5.12347C5.6084 5.12347 5.11133 4.62601 5.11133 4.01236C5.11133 3.39871 5.6084 2.90125 6.22217 2.90125C6.83594 2.90125 7.3335 3.39871 7.3335 4.01236ZM5.3335 6.67902L6.43115 5.58139C6.56104 5.4512 6.77197 5.4512 6.90234 5.58139L8 6.67902L10.8755 3.80362C11.0054 3.67343 11.2168 3.67343 11.3467 3.80362L13.3335 5.79013L13.3335 8.01236L5.3335 8.01236L5.3335 6.67902Z" fill-rule="evenodd" fill="#000000"/>
	</g>
	<defs>
		<clipPath id="clip234_1042">
			<rect width="16.000000" height="16.000000" fill="white"/>
		</clipPath>
	</defs>
</svg>
