<svg width="16.000000" height="16.000000" viewBox="0 0 16 16" fill="none" xmlns="http://www.w3.org/2000/svg" xmlns:xlink="http://www.w3.org/1999/xlink">
	<desc>
			Created with Pixso.
	</desc>
	<g clip-path="url(#clip234_1195)">
		<path d="M13.1665 1.99997L2.5 1.99997C2.2334 1.99997 2 2.23331 2 2.49997L2 4.49997C2 4.76663 2.2334 4.99997 2.5 4.99997C2.7666 4.99997 3 4.76663 3 4.49997L3 2.99997L7.3335 2.99997L7.3335 12.6666L5.8335 12.6666C5.56689 12.6666 5.3335 12.9 5.3335 13.1666C5.3335 13.4333 5.56689 13.6666 5.8335 13.6666L9.8335 13.6666C10.1001 13.6666 10.3335 13.4333 10.3335 13.1666C10.3335 12.9 10.1001 12.6666 9.8335 12.6666L8.3335 12.6666L8.3335 2.99997L12.6665 2.99997L12.6665 4.49997C12.6665 4.76663 12.8999 4.99997 13.1665 4.99997C13.4331 4.99997 13.6665 4.76663 13.6665 4.49997L13.6665 2.49997C13.6665 2.23331 13.4331 1.99997 13.1665 1.99997L13.1665 1.99997Z" fill-rule="evenodd" fill="#000000"/>
	</g>
	<defs>
		<clipPath id="clip234_1195">
			<rect width="16.000000" height="16.000000" fill="white"/>
		</clipPath>
	</defs>
</svg>
