<svg width="16.000000" height="16.000000" viewBox="0 0 16 16" fill="none" xmlns="http://www.w3.org/2000/svg" xmlns:xlink="http://www.w3.org/1999/xlink">
	<desc>
			Created with Pixso.
	</desc>
	<g clip-path="url(#clip234_1201)">
		<path d="M13.9751 6.38818L4.96533 6.38818C4.83301 5.96063 4.55176 5.05087 4.46973 4.78592C4.21875 3.97238 4.29883 3.10962 4.69629 2.35684C5.09375 1.6041 5.76074 1.05103 6.57422 0.7995C7.3877 0.548157 8.25049 0.628418 9.00342 1.02591C9.75635 1.42325 10.3091 2.09015 10.5605 2.90353C10.6294 3.12674 10.9829 4.27124 10.9829 4.27124L11.5942 4.08255C11.5942 4.08255 11.2402 2.93805 11.1719 2.71484C10.8696 1.73807 10.2056 0.937347 9.30176 0.460205C8.39795 -0.0169067 7.36182 -0.113312 6.38525 0.188568C5.40869 0.490448 4.60791 1.15448 4.13086 2.05832C3.65381 2.96219 3.55713 3.99799 3.85889 4.97461C3.93018 5.20499 4.15186 5.92371 4.2959 6.38818L2.49756 6.38818C2.3208 6.38818 2.17773 6.53131 2.17773 6.70798L2.17773 15.635C2.17773 15.8117 2.3208 15.9548 2.49756 15.9548L13.9751 15.9548C14.1519 15.9548 14.2949 15.8117 14.2949 15.635L14.2949 6.70798C14.2949 6.53131 14.1519 6.38818 13.9751 6.38818ZM13.6553 15.3153L2.81738 15.3153L2.81738 7.02777L13.6553 7.02777L13.6553 15.3153ZM9.19287 10.5339C9.19287 10.8161 9.06836 11.0673 8.87402 11.2422L8.87402 12.128C8.87402 12.4801 8.58838 12.7656 8.23633 12.7656C7.88428 12.7656 7.59863 12.4801 7.59863 12.128L7.59863 11.2422C7.4043 11.0673 7.27979 10.8161 7.27979 10.5339C7.27979 10.0054 7.70801 9.57739 8.23633 9.57739C8.76465 9.57739 9.19287 10.0054 9.19287 10.5339Z" fill-rule="evenodd" fill="#000000"/>
	</g>
	<defs>
		<clipPath id="clip234_1201">
			<rect width="16.000000" height="16.000000" fill="white"/>
		</clipPath>
	</defs>
</svg>
